<?xml version="1.0" encoding="UTF-8" standalone="no"?>
<svg xmlns:rdf="http://www.w3.org/1999/02/22-rdf-syntax-ns#" xmlns="http://www.w3.org/2000/svg" xmlns:cc="http://creativecommons.org/ns#" xmlns:xlink="http://www.w3.org/1999/xlink" xmlns:dc="http://purl.org/dc/elements/1.1/" xmlns:svg="http://www.w3.org/2000/svg" id="svg2" version="1.0">
  <defs
    >
    <radialGradient
        id="radialGradient3042"
        gradientUnits="userSpaceOnUse"
        cy="36.421"
        cx="24.837"
        gradientTransform="matrix(1 0 0 .53672 0 16.873)"
        r="15.645"
      >
      <stop
          id="stop8664"
          style="stop-color:#000000"
          offset="0"
      />
      <stop
          id="stop8666"
          style="stop-color:#000000;stop-opacity:0"
          offset="1"
      />
    </radialGradient
    >
    <radialGradient
        id="radialGradient4535"
        gradientUnits="userSpaceOnUse"
        cy="2.8969"
        cx="19.701"
        gradientTransform="matrix(2.0467 0 0 1.5576 -55.546 -29.723)"
        r="17.171"
      >
      <stop
          id="stop8652"
          style="stop-color:#ffffff"
          offset="0"
      />
      <stop
          id="stop8654"
          style="stop-color:#ffffff;stop-opacity:0"
          offset="1"
      />
    </radialGradient
    >
    <radialGradient
        id="radialGradient4538"
        gradientUnits="userSpaceOnUse"
        cy="32.798"
        cx="22.292"
        gradientTransform="matrix(.84302 0 0 1.0202 -31.528 -31.793)"
        r="16.956"
      >
      <stop
          id="stop2593"
          style="stop-color:#729fcf"
          offset="0"
      />
      <stop
          id="stop2595"
          style="stop-color:#3465a4"
          offset="1"
      />
    </radialGradient
    >
  </defs
  >
  <g transform="translate(-958 150) scale(5,5) rotate(90,100,100)">
      <path
          style="opacity:.29947;fill-rule:evenodd;fill:url(#radialGradient3042)"
          d="m40.482 36.421a15.645 8.3969 0 1 1 -31.29 0 15.645 8.3969 0 1 1 31.29 0z"
          transform="matrix(-1.2712 0 0 1.2712 20.167 -48.453)"
      />
      <path
          style="stroke-linejoin:round;fill-rule:evenodd;stroke:#183868;stroke-linecap:round;stroke-miterlimit:10;fill:url(#radialGradient4538)"
          d="m3.4626-17.678v16.994l-12.953 0.00048 0.0004 8.4825-19.96-17 19.954-17.244-0.0001 8.772 12.959-0.005z"
      />
      <path
          style="opacity:.50802;fill-rule:evenodd;fill:url(#radialGradient4535)"
          d="m-10.039-25.197v8.057h12.942l-0.0002 8.8842c-16.75-6.2502-16.134 5.2947-31.384-0.9553l18.442-15.986z"
      />
      <path
          style="opacity:.48128;stroke:#ffffff;stroke-miterlimit:10;fill:none"
          d="m2.4478-16.633v14.922l-12.986-0.0005v7.3015l-17.321-14.796 17.337-14.905v7.482l12.97-0.004z"
      />
    </g>
		<!--
		<line x1="0" y1="0" x2="100" y2="100" stroke="black" />
	-->
</svg>
