<?xml version="1.0" encoding="UTF-8" standalone="no"?>
<svg  height="506" width="506" xmlns:rdf="http://www.w3.org/1999/02/22-rdf-syntax-ns#" xmlns="http://www.w3.org/2000/svg" xmlns:cc="http://creativecommons.org/ns#" xmlns:xlink="http://www.w3.org/1999/xlink" xmlns:dc="http://purl.org/dc/elements/1.1/" xmlns:svg="http://www.w3.org/2000/svg" id="svg2" version="1.0">
  <defs id="defs4">
    <linearGradient
        id="linearGradient3441"
        y2="329.22"
        gradientUnits="userSpaceOnUse"
        x2="595.51"
        y1="509.84"
        x1="595.51"
      >
      <stop
          id="stop3380"
          style="stop-color:#8800ff"
          offset="0"
      />
      <stop
          id="stop3382"
          style="stop-color:#250074"
          offset="1"
      />
    </linearGradient>
  </defs>

  <g id="layer1" transform="matrix(1 0 0 -1 0 506)">
	<path id="rect2568" style="stroke:#00008b;stroke-width:18.094;fill:#8888f2" d="M115.51 10.55 v176.7l-97.606 -0.42 113.37 152.17 113.37 152.17 115.71 -151.11 115.77 -151.18 -102.13 -0.5v-177.83z"/>
<path id="path3364" style="fill:url(#linearGradient3441)" d="M547.16 405.83h-31.775l76.869 102.01 78.062 -101.88 -32.875 -0.125v-78.625h-90.281z" transform="matrix(2.2617 0 0 2.2617 -1095.4 -704.91)"/>
	</g>

<!--			
  <g id="layer1" transform="matrix(1 0 0 -1 0 506)">
	<path id="rect2568" style="stroke:#00008b;stroke-width:18.094;fill:#8888f2" d="M115.51 10.55 v176.7l-97.606 -0.42 113.37 152.17 113.37 152.17 115.71 -151.11 115.77 -151.18 -102.13 -0.5v-177.83z"/>
<path id="path3364" style="fill:url(#linearGradient3441)" d="M547.16 405.83h-31.775l76.869 102.01 78.062 -101.88 -32.875 -0.125v-78.625h-90.281z" transform="matrix(2.2617 0 0 2.2617 -1095.4 -704.91)"/>
	</g>


	<line x1="119.51" y1="12.551" x2="248.6" y2="491" stroke="black" />
	<line x1="378" y1="12.551" x2="248.6" y2="478" stroke="black" />
	<rect x="150" y="340" width="190" height="190" style="opacity:1" />
	 <g fill="none">
    <path stroke="black" d="M0 0   l 494 0 v 505 0  l -494 0 z" />
  </g>
	-->

 </svg>
